<svg version="1.2" xmlns="http://www.w3.org/2000/svg" viewBox="0 0 4621 5000" width="4621" height="5000">
	<title>celeiro-svg</title>
	<style>
		.s0 { fill: #a43c4c } 
	</style>
	<g id="Layer">
		<path id="Layer" fill-rule="evenodd" class="s0" d="m1696 4699.6c-0.5-120.3-1.3-186.2-4.7-417.5-3.5-241.7-1.1-378.7 0.6-452.5 0.8-37.2 0.9-49.8 1.6-49.8 1.9 0 343.4 7 779 6.4 227.8-0.4 367.3 0.5 427.8 0.9l28.5 0.5 1.2 110c0.4 60.3 1 267.6 1.3 460.6 0.4 193.1 0.7 353.6 0.9 357 0.1 3.3 0.2 70 0.3 148.3v144.5l756-2h755.7l0.7-4.7c0.3-2.5 0.6-411.5 0.6-908.8 0-799.5 0.2-904.2 1.5-904.2 2 0 12.9 10.8 16.5 16.4 1.6 2.6 5.1 10 7.6 16.5 3.5 8.6 5.1 11.7 6.2 11.3 0.7-0.3 15.4-10.3 32.6-22.3 17.2-12 36.9-25.7 43.8-30.4 6.9-4.8 14.8-10.2 17.5-12.1 2.8-1.9 13-9 22.7-15.8 13.4-9.2 19.2-13.9 23.8-19.2l6-6.9-2.2-5.3c-3.8-9.4-46-93.1-69.7-138.4-3.8-7.2-11-21.1-16.1-31.1-13.7-26.6-24.2-46.7-35.1-67.5-5.4-10.2-13.4-25.8-18-34.6-12.7-24.6-30.1-57.8-53.9-102.6-14.1-26.7-16.2-30.7-28.2-53.6-4-7.7-13.2-25.3-20.5-39-7.3-13.8-16.6-31.3-20.6-39.1-7.8-15-9.5-18.2-30.2-57.5-7.4-14-20.6-39.1-29.3-55.6-8.7-16.5-23.3-44-32.4-61.1-9-17.1-18.9-35.7-22-41.5-3-5.8-6.7-12.8-8.2-15.5-1.5-2.8-5.5-10.4-9-17.1-3.5-6.6-12.1-23-19.3-36.5-7.1-13.5-15.4-29-18.3-34.5-2.9-5.5-7.6-14.6-10.5-20.1-2.9-5.5-7.7-14.7-10.8-20.5-3-5.8-11.2-21.3-18.2-34.5-7-13.2-17.1-32.4-22.5-42.6-5.4-10.2-15.4-28.9-22.1-41.5-6.7-12.7-16.5-31.2-21.7-41.1-12.6-23.8-35-66.1-40.3-76.1-2.3-4.4-8.9-16.8-14.6-27.5-5.6-10.7-11.5-21.8-13-24.5-1.5-2.8-6.2-11.8-10.5-20.1-7.4-14.2-10.5-20.2-22.3-42.5-2.7-5.2-11.4-21.7-19.2-36.5-15.3-29.1-19.5-36.9-31.8-60.1-4.4-8.3-11.5-21.8-15.8-30.1-4.3-8.3-9.5-18.2-11.5-22-7-13-26.6-50.8-41-79.1-8-15.4-16.1-30.5-18.2-33.5-6.5-9.6-9.6-12-41.9-31.5-10.7-6.5-21.7-13.1-24.5-14.9-2.8-1.7-11.4-7-19.1-11.7-35.1-21.8-84.4-52.4-87.1-54.1-2.9-2-26.1-16.6-55-34.6-7.8-4.8-25.6-15.9-39.6-24.7-14-8.8-33.4-21-43-27.1-9.7-6.1-19.8-12.4-22.6-14.2-11.1-7.1-27.5-17.5-36.5-23.2-5.2-3.3-15.3-9.7-22.5-14.3-7.1-4.5-26.8-16.8-43.6-27.2-16.8-10.6-32.7-20.6-35.5-22.3-2.7-1.8-14.7-9.3-26.6-16.6-11.8-7.3-27.3-16.9-34.5-21.3-7.1-4.4-15.2-9.5-18-11.2-14.4-9.3-131.5-80.4-164.2-99.9-36.9-21.9-64.8-38.9-110.5-67.7-11.1-7-15-9.5-27.4-17.5-2.9-1.9-15.2-9.6-27.3-17.3-12.1-7.6-32.8-20.6-45.8-28.9-55-34.8-92.9-58.7-188.2-118.5-48-30.3-62.2-39.2-105.4-66.7-21.4-13.6-41-26.1-43.3-27.5-2.4-1.4-13.2-8.2-24-15.1-10.9-6.8-39.9-25-64.4-40.3-24.5-15.4-46.7-29.5-49.5-31.3-2.7-1.8-13.2-8.3-23.1-14.5-27.5-17.3-29.8-18.8-32.5-20.8-2.4-1.9-2.2-2 36.5-2.6 64.9-1.1 77.4-1.1 178.8-0.2 91.5 0.8 157.5 0 170.3-2 3.4-0.6 3.9-0.4 3.9 1.3 0 2.3-10.5 17.8-21.7 31.9-8.2 10.4-10.9 13.8-32.9 41-22.6 27.8-39.6 50.8-38.3 52.1 0.2 0.3 7.7-2.3 16.4-5.7 8.8-3.4 21.5-8.3 28.4-10.9 18.6-7.1 40.6-16.2 90.1-37.4 9.9-4.3 79.2-33.7 95.1-40.4 8.5-3.6 19.6-8.2 24.6-10.3 5-2.2 17.8-7.3 28.5-11.6 10.7-4.2 22.7-9.2 26.5-11.2 10-4.9 20.5-11.2 20.5-12.1 0-0.4-1.7-1.5-3.7-2.3-2.1-0.9-17.3-7.3-33.8-14.3-16.5-7.1-32-13.6-34.5-14.6-2.5-1-9.3-3.8-15.1-6.3-5.8-2.5-17.7-7.5-26.5-11.2-8.8-3.7-17.3-7.3-19-8-1.6-0.8-5.9-2.6-9.5-4-3.6-1.5-7.8-3.3-9.5-4-1.6-0.8-7.5-3.2-13.1-5.5-5.5-2.3-17-7.1-25.5-10.7-8.5-3.6-22.2-9.4-30.5-12.8-8.2-3.5-27-11.5-41.6-17.6-14.6-6.2-30.5-12.9-35.5-15-4.9-2-14.1-5.9-20.2-8.5-6.2-2.6-11.8-4.5-12.4-4.3-1.1 0.3 9.1 15.8 18.1 27.3 3 3.8 16 20.4 29 36.6 33.7 42.2 48 61.6 46.4 63.2-0.4 0.4-93.2 0.4-206.1 0.1l-205.2-0.7-0.7-5c-0.7-4.6-2.4-15.4-4.9-30.5-1.4-8.5-1.1-21.7 0.7-27.7 3.2-11 8.1-18.1 22.9-33 8.7-8.7 14.8-15.7 16.2-18.5 1.2-2.5 4.4-9.3 7.1-15.2 5.9-12.6 10.8-18.1 20.9-23.1 9.4-4.7 15.2-10.2 23.4-21.8 3.8-5.3 9.2-11.8 11.9-14.2 5.4-4.9 19.3-12.5 27.6-15.2 6.6-2.1 23.2-5.5 32.6-6.6 46.6-5.7 65.7-11.3 88.1-25.8 19-12.3 37-32.6 50.5-56.8 18.5-33 23.7-74.6 12.9-103.2-4.7-12.4-9.3-20-19.7-31.8l-6-6.8 0.6-6.4c0.6-8.5 4-15.1 9.7-19.3 5.3-4 9-10.8 9-16.9 0-4-0.3-4.4-6.2-8.6-3.5-2.5-13.2-8.1-21.7-12.6-24.7-13.1-33.1-19.5-38.9-29.1-5.7-9.7-2.4-17.5 8.6-20.7 4.6-1.4 5.8-2.3 8.2-6.1 2.8-4.3 4.7-9.9 3.7-10.9-0.2-0.3-6.9 0.7-14.8 2-8.5 1.5-14.9 2.1-15.4 1.6-0.5-0.5 2.4-4.7 7-10 8.8-10 13.2-17 13.7-21.6l0.3-3-8 0.1c-7.2 0.2-9.3 0.7-18.9 4.8-6 2.6-11.1 4.7-11.3 4.7-0.2 0-0.4-5-0.4-10.9 0-20.6-5.1-30-22.5-41.9-7.5-5-20.9-11.8-25.4-12.8-10.2-2.2-14.7 0-18.8 9.2-1.3 2.9-2.9 5.3-3.5 5.3-0.6 0-2.4-1.1-4.1-2.5-3.1-2.6-11.4-5.5-15.9-5.5-16.5 0-43.5 14.6-55 29.6-5 6.6-11.1 19.4-13.5 28-2.6 9.5-3.1 26.8-1.1 34 1 3.3 2.4 8.4 3.2 11.2 0.9 2.9 2 5.3 2.6 5.3 0.6 0 4.3-2.6 8.2-5.8 8.1-6.5 12.2-9 19-11.6 6.5-2.4 7.3-1.6 5.8 6.5-1.4 8-3.7 11.2-13.7 18.7-4.5 3.4-10.7 8.8-13.6 12-10.3 11.2-9.6 18.7 2.1 22.8 12.6 4.4 25.1 3.6 47.5-3.2 4.3-1.3 8.1-2.1 8.4-1.8 1 0.9-2 11.9-5.9 22-14.2 36.6-44.9 68.6-70.9 73.7-8.3 1.6-13.8 0-18.6-5.2-3.5-3.9-3.5-3.9-3.5-13.7 0-5.5 0.7-15.1 1.6-21.4 1.9-14.2 2.2-50.3 0.4-60.9-3.1-19.4-8.9-37.2-17.6-54.5-20.4-40.2-58.7-79.7-98.5-101.4-18.8-10.3-34.9-19.7-69.8-27.9-14.5-3.5-26.1-4.4-26.8-4.5-44.8-3-54-2.9-69-0.7-19.7 2.9-16.9 3-28.9 7.1-11.5 4-39.6 15.4-61.4 26.4-61 30.9-106.1 75-120 117.2-12.3 37.6-7.1 72 14.2 93l7.2 7.1-6.1 5.9c-16.9 16.1-29.5 37.4-34.6 58.6-1.3 5.3-1.8 11.3-1.8 21.8 0 15.7 0.5 18.3 7.3 35.6 3.4 8.9 3.5 9.3 4.3 29.5 0.8 20.9 2.1 30 5.9 39.9 2.9 7.5 9.8 21.1 12.7 24.9 2.5 3.3 9.2 8.1 17.3 12.4 2.5 1.4 6.4 3.7 8.8 5.2l4.3 2.7v11.3c0.1 23.3 7.5 43.7 22.9 63 28 35 64.4 48.3 112.9 40.8 15.7-2.3 27.6-5.3 47.3-12 18-6 28.5-10.6 27.6-12-1.1-1.8-10-5.9-21.5-9.9-12.9-4.6-19.5-9-25.8-17.5-12.8-17.6-15.1-32.8-7.5-48.7 3.5-7.4 16.6-20.1 26.9-26.3 21.5-12.8 51.1-20.5 69.2-17.9 24 3.4 38.9 16.6 52.5 46.7 2 4.4 7.5 19.8 12.3 34.1 10.5 31.4 13.3 38.4 23.6 57.9 11.1 21.4 12.4 25.5 12.3 39.7 0 10-0.5 12.7-3.1 20.7-3.2 9.9-11.3 25.6-16.5 31.8-1.8 2.2-5 4.7-7.2 5.7-3.9 1.8-10.8 1.9-171.3 1.8-102.4 0-170.1-0.3-174.7-0.9-10.5-1.4-16.1-3.5-26.5-9.9-4.9-3-25.2-15.1-45.1-26.9-19.8-11.9-37.6-22.6-39.5-23.8-9.2-6.1-37.9-22.3-49.6-28-18.3-9.2-27.7-11.8-44.3-12.4-7.3-0.2-28.1 0.3-46.2 1.3-24.6 1.3-44.2 1.6-78.5 1.4-34.6-0.3-45.4-0.1-44.9 0.7 0.4 0.7 9.9 10.9 21.2 22.7 19 19.7 31.1 32.2 69.1 71.2 8 8.2 14.8 15.5 15.3 16.2 1.1 2.1-5 8.6-48.7 52-31.3 31.1-55 56.4-56.5 60.4-0.1 0.4 38.4 0.6 85.6 0.5 72.2-0.2 88.3-0.5 100.9-1.9 8.3-0.9 16.6-2 18.6-2.5 2-0.5 8.6-3.9 14.5-7.6 6.1-3.6 23.4-14 38.5-23.1 31.6-19 43.5-26.4 61.1-37.8 29.3-19.1 38.9-23.3 58.6-25.5 6.3-0.7 59.5-1 157.9-0.8 161.7 0.2 168.9 0.3 168.9 2.2 0 0.7-1.1 1.8-2.4 2.4-1.2 0.5-13.5 8.4-27.2 17.4-13.7 9-29.7 19.5-35.7 23.3-6 3.9-19 12.5-29.1 19.1-10 6.6-25.2 16.5-33.7 22.1-8.5 5.6-21.6 14-29 18.8-7.3 4.8-26.2 16.5-42 26-15.7 9.6-33.4 20.3-39.2 23.9-5.8 3.5-22.2 13.6-36.5 22.3-14.3 8.7-28.2 17.2-31 19-2.7 1.7-16.8 10.3-31.1 19-24.4 14.9-31.4 19.3-68.6 42.3-53.1 32.9-97 60.3-150.1 93.7-20.7 13-47 29.5-58.6 36.8-11.5 7.3-32.2 20.2-46.1 28.9-13.7 8.6-33.5 21-44 27.5-19.2 12-38.2 23.9-44.6 28.2-3.6 2.4-39.1 24.7-73.6 46.4-69.1 43.6-94.8 59.6-100.1 62.7-3.3 2-10.3 6.3-15.5 9.7-5.2 3.3-20.1 12.6-33 20.6-45.4 28.1-49.6 30.7-54.6 33.8-4.2 2.7-17.5 10.9-55 34-3.6 2.2-15.2 9.4-25.8 15.9-30.5 18.9-44.4 27.5-57.4 35.2-6.6 4-23.7 14.3-38 23-14.3 8.7-27.3 16.5-29 17.5-1.6 0.9-13.2 7.8-25.6 15.2-12.4 7.4-33.7 20.2-47.5 28.4-13.7 8.1-27.1 16-29.6 17.5-2.5 1.5-14.4 8.5-26.5 15.5-12.1 7-24 14-26.5 15.5-2.5 1.5-12.1 7.1-21.6 12.5-34.5 20-51.2 32.4-63.6 47.2-11.7 14-17.7 24-37.4 63.1-7.4 14.8-16.4 32.3-19.9 38.9-11.9 22.2-33.9 64-39.7 75.1-3.2 6-8.9 16.8-12.6 24-3.8 7.1-8.2 15.5-9.8 18.6-1.6 3-12.4 23.7-23.9 46-21.9 42.4-31.2 60.2-38.3 73.6-2.4 4.4-7.8 14.7-12.1 23-4.3 8.2-9.7 18.6-12 23-5.2 9.9-8.9 16.8-31.2 59.6-9.6 18.4-19 36.3-20.8 39.6-5.3 9.9-11.8 21.9-22.1 42-5.4 10.4-11 21.2-12.5 24-1.5 2.8-6.2 11.8-10.5 20.1-4.3 8.2-12.4 23.8-18 34.5-5.6 10.7-13.9 26.7-18.5 35.6-4.6 8.8-10.3 19.8-12.9 24.5-2.5 4.7-10.5 20.2-18 34.5-7.4 14.3-17.5 33.7-22.4 43.1-5 9.3-11.5 21.7-14.6 27.5-3 5.8-10.8 20.4-17.2 32.5-6.5 12.2-14.2 26.6-17.1 32.1-2.9 5.5-12.6 23.7-21.5 40.5-8.9 16.9-21.1 39.8-27 51.1-5.9 11.3-12.2 23.2-14 26.5-1.8 3.3-5.8 10.9-9 17-3.2 6.1-9.4 17.6-13.6 25.6-4.3 8-15.6 29.1-25 47-34.7 65.5-42.3 79.7-46 86.6-5.7 10.4-18.7 35.2-28.6 54.1-3.2 6-7.7 14.6-10 19-17.3 32.8-46 87.8-56.6 108.2-11.3 21.9-22.1 42.9-29 56-9.6 18.4-42.2 83.4-47.9 95.3-8.2 17.4-8.4 15.9 5.1 28.9 13 12.7 29.1 25.8 49.8 40.5 24 17.1 53.8 36.2 73.7 47.2l6.2 3.3 3.9-3.9c2.2-2.2 9-10 15.3-17.3 6.2-7.3 11.7-13.3 12.1-13.3 0.5 0 0.9 184.6 1 422.2 0.1 232.3 0.2 429.1 0.3 437.4 0.1 8.2 0.3 225.7 0.4 483.3l0.2 468.3 756.2-0.2 739.8 2.2h24.1m629.7-4248.4c21.3 7.7 56.8 27.1 115.8 63.2 19 11.7 47.3 29.1 56 34.7 3.6 2.3 10.6 6.7 15.5 9.9 34 21.6 64.5 41 85.5 54.1 6.9 4.3 14.8 9.2 17.5 11 13.4 8.6 25.6 16.2 43 26.7 21 12.7 23.6 14.3 68 42.2 17.1 10.7 37.8 23.7 46 28.8 8.3 5.1 17.1 10.6 19.7 12.3 9.3 5.9 19.7 12.5 50.3 31.5 17.1 10.5 34.4 21.4 38.5 24 4.1 2.6 17.9 11.2 30.5 19 26.6 16.5 85.8 53.5 112 70 9.9 6.3 25 15.7 33.5 21 24.5 15.3 61.2 38.2 104.7 65.4 22.1 13.8 43.1 26.8 46.5 28.9 3.5 2.1 11.8 7.3 18.5 11.5 6.8 4.2 23.6 14.8 37.5 23.5 13.9 8.7 36.8 23 50.8 31.9 14 8.8 32 20.1 40 25 8 5 18.8 11.7 24 15 38.7 24.2 56.8 35.4 65 40.4 5.2 3.2 11.3 7 13.5 8.4 2.2 1.5 6.9 4.5 10.5 6.7 9.4 5.8 86.6 54.1 112.2 70.2 12 7.5 23.6 14.7 25.8 16.1 8.6 5.3 37.8 23.5 43.9 27.4 3.5 2.3 9.7 6.1 13.8 8.6 4 2.5 11.9 7.4 17.6 10.9 5.6 3.5 17.2 10.8 25.7 16.1 8.5 5.3 27 16.5 41 24.7 14 8.3 27.9 16.5 30.9 18.2 16.5 9.8 27 19.2 34.4 30.8 2.6 4 11 19.5 18.8 34.5 7.8 15 15.4 29.5 16.9 32.3 4.3 7.9 13.4 25.1 41.5 79 24.6 47 27.9 53.4 43.5 83 7.5 14.3 16.5 31.4 20 38 3.4 6.6 9.9 19 14.5 27.5 13.2 24.9 17.3 32.6 35.5 67.5 9.5 18.1 19.1 36.6 21.5 41 2.3 4.4 7.4 14.1 11.2 21.5 15.4 29.5 39.6 75.7 41.3 78.5 0.9 1.6 3.7 6.6 6 11 2.4 4.4 5.2 9.6 6.3 11.5 8 14.1 44.7 81.2 50.9 93 3.1 5.8 11.1 21.3 17.8 34.5 6.8 13.2 13.7 26.7 15.5 30 1.8 3.3 7.4 14.1 12.5 24 5.1 9.9 11.9 22.9 15 29 3.2 6 13.7 26.5 23.5 45.5 9.8 19 19.9 38.5 22.5 43.5 2.6 4.9 9.2 17.5 14.6 28 5.3 10.4 14.2 27.5 19.7 38 5.5 10.4 18.5 35.4 28.9 55.5 10.4 20.1 21.3 41 24.3 46.5 2.9 5.5 8.8 17 13.3 25.5 4.4 8.5 18 34.8 30.2 58.5 12.2 23.6 25.1 48.4 28.5 55 3.4 6.6 9.9 19 14.3 27.5 8 15.4 54.7 105.4 88.9 171 9.9 19 23.1 44.4 29.3 56.5 6.2 12.1 12.1 23.4 13.1 25.1l1.9 3.1-9.5 9.3c-11 10.9-20.4 18.1-31.2 24.2-9.1 5.1-21 10.1-22.3 9.3-1.6-1-28.1-46.2-40.5-69-2.1-3.9-5.7-10.4-8-14.5-2.3-4.1-8-14.7-12.5-23.5-4.6-8.8-11-21-14.2-27-3.2-6.1-15.5-30.4-27.4-54-42.4-84.2-65.4-129.1-77.4-151-1.5-2.8-5.2-9.5-8.2-15-3-5.5-9.8-17.7-15-27-5.2-9.4-11-19.7-12.8-23-12.7-23.1-19.4-35.3-24-44-2.9-5.5-5.6-10.5-6-11-0.6-0.8-16-29.9-36.5-69-11.2-21.4-19.9-38.3-36.5-71-9.5-18.7-22.1-43.5-28-55-5.9-11.6-18.3-35.9-27.5-54-9.2-18.2-18.4-36.2-20.5-40-2.1-3.9-5.9-11.1-8.5-16-5.4-10.1-11.7-22.2-18-34-2.3-4.4-7.3-13.9-11-21-3.7-7.2-8.2-15.7-10-19-4-7.5-11.1-21.1-25.5-48.5-6.2-11.8-14-26.7-17.3-33-3.3-6.3-8-15.3-10.5-20-2.4-4.7-9-17.3-14.7-28-5.6-10.7-13.3-25.4-17-32.5-6.1-11.7-29.1-55.4-68.8-130.5-13.8-26.2-39.2-74.7-53-101-3.8-7.4-10.7-20.5-15.2-29-4.5-8.5-12.5-23.8-17.7-34-5.3-10.2-14.4-28-20.3-39.5-20.7-40.2-26.7-49.6-40.2-62.6-15.1-14.6-26.5-22.2-91.8-61.7-10.4-6.3-20.6-12.5-22.5-13.7-1.9-1.2-20.8-12.9-42-25.9-21.2-13.1-47.3-29.3-58-36.1-10.7-6.8-21.5-13.6-24-15.1-2.5-1.5-8.8-5.5-14-8.9-5.2-3.4-15.8-10.2-23.5-15-7.7-4.9-18.9-12-25-16-6-4-26.5-17-45.5-29.1-19-12-38.5-24.4-43.5-27.6-4.9-3.1-11.5-7.2-14.5-9.1-3-1.9-11.3-7.1-18.5-11.7-7.1-4.5-22.7-14.3-34.5-21.7-11.8-7.4-38.6-24.2-59.5-37.3-20.9-13.1-42.9-26.9-49-30.6-6-3.7-13.9-8.7-17.5-11-6.4-4.1-50.5-31.6-87-54.2-10.2-6.3-24.1-14.9-31-19.2-6.9-4.2-19.2-11.9-27.5-17-8.2-5.1-16.6-10.3-18.5-11.5-1.9-1.2-8.2-5.2-14-8.7-14.4-8.9-74.4-46.1-91.5-56.8-12.7-8-42.1-26.1-74.5-46-6.9-4.3-20.4-12.6-30-18.5-9.6-6-22-13.6-27.5-17-5.5-3.3-26-15.9-45.5-28-19.5-12-42.5-26.1-51-31.3-8.5-5.2-23.6-14.5-33.5-20.6-54.7-34.1-183.5-112.1-267-161.6-21.8-12.9-48.8-27.9-51.7-28.5-4.1-1-16.7 5.6-66.8 35.3-25.2 14.9-54.8 32.8-61 36.8-1.9 1.2-10.5 6.5-19 11.6-17.9 10.9-57.9 35.4-79 48.5-8 4.9-23.3 14.4-34 21-10.7 6.6-34.6 21.5-53 33.1-18.4 11.6-53.5 33.5-78 48.8-24.5 15.3-47.4 29.6-51 31.9-3.6 2.3-9.4 6-13 8.2-10.9 6.7-71.3 44.3-75 46.8-1.9 1.2-11.6 7.3-21.5 13.5-9.9 6.2-19.6 12.2-21.5 13.5-1.9 1.2-10.9 6.9-20 12.6-9.1 5.7-22.3 14-29.5 18.5-7.1 4.5-21.1 13.3-31 19.4-9.9 6.2-22 13.8-27 17-14.7 9.4-27.4 17.3-45.7 28.6-9.5 5.9-27.4 17-39.8 24.7-12.4 7.7-32.8 20.4-45.5 28.3-34 21.1-34.6 21.4-40 24.9-2.7 1.7-7.8 4.9-11.3 7.1-3.5 2.1-8.2 5.1-10.5 6.6-25.6 16.1-123.4 75.5-143.1 86.8-25.1 14.3-43.4 25-59.6 35-9.6 5.9-22.7 13.9-29 17.7-6.3 3.9-19.6 12.1-29.5 18.3-19.9 12.5-43.7 27.1-59 36.3-10.2 6.1-66.4 39.5-72.1 42.7-50.7 29.2-137.9 84.6-162.2 102.9-23.6 17.9-23.8 18.2-49.5 69.9-9.5 19.1-22.4 44.4-28.6 56.2-6.3 11.8-14.1 26.7-17.4 33-3.3 6.3-8.1 15.5-10.7 20.5-2.6 4.9-12.5 23.8-22 42-9.5 18.1-20.7 39.5-25 47.5-4.3 8-19.1 37-33 64.5-22.5 44.4-40.9 80.4-60.5 118-3.4 6.6-10.6 20.5-16 31-16 31.2-25.5 49.5-30 58-2.3 4.4-12.7 24.2-23 44-10.3 19.8-20.2 38.7-22 42-1.8 3.3-8 15-13.8 26-10.1 19.3-14 26.7-27 51.5-3.3 6.3-10.5 20-16 30.5-5.5 10.4-16.8 32-25.2 48-8.4 15.9-22 41.8-30.2 57.5-8.3 15.7-19.6 37.3-25.3 48-5.6 10.7-13.7 26-18 34-4.3 8-13.6 25.5-20.7 39-7.2 13.5-14.8 27.9-17.1 32-2.2 4.1-9.7 18.3-16.7 31.5-7 13.2-20.1 37.7-29 54.5-8.9 16.8-23.8 44.7-33 62-9.2 17.3-17.7 33.3-19 35.5-1.2 2.2-4.8 8.9-8 15-3.2 6-7 13.2-8.5 16-3.4 6.2-7.3 13.4-13.5 25-4.4 8.1-17.3 31.9-24.5 45-1.5 2.7-4.7 8.6-7 13-2.4 4.4-7.6 13.8-11.5 21-4 7.1-14.2 25.4-22.6 40.5-23.6 42.6-23.9 43-29.1 51.2-3.1 4.9-5.4 7.5-6.1 7.1-0.7-0.4-4.3-2.8-8.2-5.4-3.8-2.5-17.1-11.3-29.5-19.4-12.4-8.1-22.7-14.9-22.9-15.1-0.2-0.1 1.7-4 4.2-8.6 2.4-4.6 7.7-14.6 11.7-22.3 6.8-13.1 12.3-23.7 22.5-43 2.3-4.4 7.5-14.3 11.5-22 4-7.7 8.5-16.3 10-19 1.5-2.8 5.6-10.4 9-17 3.5-6.6 8.4-16.1 11-21 2.6-5 7.8-14.9 11.5-22 3.7-7.2 8.1-15.5 9.8-18.5 1.6-3 8.6-16.3 15.4-29.5 6.9-13.2 16.9-32.3 22.3-42.5 5.4-10.2 17.7-33.8 27.5-52.5 9.8-18.7 20.3-39 23.5-45 3.1-6.1 8.7-16.6 12.3-23.5 3.6-6.9 13.3-25.6 21.7-41.5 8.4-16 17.9-34.2 21.2-40.5 3.4-6.3 7.3-13.8 8.8-16.5 4.9-9 27.8-52.7 43-82 4.6-8.8 8.6-16.5 9-17 0.4-0.6 4.9-9.1 10-19 11.1-21.6 17.1-33.1 36.7-70.5 8.3-15.7 19-36.2 23.8-45.5 4.8-9.4 10-19.3 11.5-22 1.5-2.8 6.5-12.2 11-21 4.6-8.8 8.6-16.5 9-17 0.4-0.6 4.7-8.7 9.5-18 4.8-9.4 13.8-26.5 20-38 6.2-11.6 15.8-30 21.5-41 5.6-11 11-21.4 12-23 1.7-2.9 5-9.3 20.7-39.5 27.8-53.3 43.9-84.2 46.3-88.5 1.5-2.8 6.9-13.1 12-23 5.1-9.9 10.1-19.4 11-21 1-1.7 5.2-9.8 9.5-18 4.3-8.3 9.7-18.6 12-23 2.4-4.4 9.1-17.2 15-28.5 5.9-11.3 12-22.8 13.5-25.5 1.5-2.8 5.7-10.6 9.2-17.5 20.3-38.9 88.2-168.8 105.7-202 3.9-7.4 10.8-20.7 15.3-29.4l8.3-15.9 7.7-5.6c9.5-6.8 17.4-11.9 43.8-27.9 11.3-6.8 30.9-18.8 43.5-26.6 12.7-7.8 35.8-22 51.5-31.6 15.7-9.5 30.1-18.3 32-19.6 1.9-1.2 7.6-4.7 12.5-7.7 5-3 26.3-16.1 47.5-29.2 21.2-13.1 43.2-26.7 49-30.2 28.3-17.3 45.3-27.7 76.5-46.7 18.7-11.4 35.6-21.8 37.5-23 1.9-1.3 9.8-6.1 17.5-10.8 12.5-7.6 85.9-52.6 113.5-69.6 5.8-3.6 24.2-14.9 41-25.2 16.8-10.3 43.6-26.7 59.5-36.5 16-9.8 31-19 33.5-20.5 9.2-5.5 123.1-75.3 128-78.4 5.8-3.7 15.5-9.7 35-21.6 10.2-6.3 34.3-21 53.5-32.8 19.3-11.8 36.2-22.2 37.7-23.1 1.5-0.9 6.7-4 11.5-7 4.8-3 16.7-10.2 26.3-16.1 9.6-5.9 43.4-26.6 75-46.1 31.6-19.4 62-38 67.5-41.4 5.5-3.4 17.2-10.6 26-16 8.8-5.4 23.9-14.6 33.5-20.5 9.6-5.9 28.2-17.3 41.4-25.3 13.1-8.1 24-14.7 24.2-14.7 0.2 0 3-1.7 6.1-3.7 3.2-2.1 6.6-4.2 7.5-4.8 3.3-1.9 28.2-17.1 52.3-32 13.2-8.1 28.7-17.7 34.5-21.2 5.8-3.6 14.3-8.8 19-11.7 4.7-2.9 14.6-9 22-13.6 7.4-4.5 19.6-12 27-16.5 7.4-4.5 20.3-12.4 28.5-17.5 8.3-5.1 19.7-12.1 25.5-15.6 5.8-3.5 18.4-11.3 28-17.3 12.1-7.6 18.5-10.9 20.7-11 1.7-0.1 6.5 1.1 10.5 2.5zm43.8 1211.8c31.8 5.2 57.2 13.2 85.5 27.1 56.1 27.5 103.3 73.8 132.7 130.5 14.4 27.9 24.3 58.8 29.4 92 2.2 14.4 2.6 19.8 2.6 42 0 22.3-0.3 27.6-2.5 42.5-13.1 86.9-62.1 161.9-136.4 208.9-30.6 19.4-75.3 36.1-108.8 40.7-37.7 5.1-58.3 5.1-94.5 0-24-3.4-56.8-13.8-81-25.7-23.9-11.7-37.4-20.2-56.5-35.4-52.3-41.5-90.2-103-104.3-169-4.9-23-5.7-31.2-5.7-61.5 0-30.3 0.8-38.5 5.7-61.5 23.5-110.6 110-199.4 219.8-225.9 11.8-2.8 17.3-3.8 35-6.1 13.2-1.7 15.1-1.8 39.5-1.5 19.7 0.3 26.7 0.8 39.5 2.9zm-763.4 910.7c16.8 4.2 30.7 11.7 42.9 23 8.4 7.9 16.7 17.7 16.3 19.4-0.2 0.9-35.9 30.4-42.3 35-1 0.7-3-0.9-7.7-6-12.6-13.7-24.7-19-42.1-18.3-9.2 0.3-10.9 0.7-17.7 3.9-17.3 8.3-27.2 23-30 44.6-3.9 30.5 10.2 57 34.7 65.2 8.4 2.8 22 2.9 31.2 0.1 8.8-2.6 14.9-6.7 24.4-16.2l7.7-7.9 6.8 5.1c5.3 4 24.5 18.2 35.5 26.2 1.7 1.2 1.6 1.6-1.5 6.3-5.3 8-19.6 21.8-29.1 28-34.9 22.7-83.9 23-119.6 0.8-32.9-20.5-52.1-56.4-52.1-97.5 0-32.8 11.1-60.8 33-82.9 14.7-14.7 31-24 52-29.5 15.8-4.1 39.9-3.8 57.6 0.7zm437.9-0.9c27.2 6.2 49.3 20.3 65.9 42.1 21.7 28.4 28.5 69.5 17.5 104.7-4.8 15.5-15.5 33.5-26.8 45.3-5.4 5.7-19.3 16.2-27.1 20.5-19 10.6-45.2 15.8-67.3 13.4-40.9-4.5-73.1-26.4-90.6-61.7-7.8-15.8-11-28.2-11.8-45.9-0.7-16.7 0.8-28.7 5.2-42.3 12.6-38.2 41.2-65.2 80-75.4 15.8-4.2 38.4-4.5 55-0.7zm422.5-0.7c12.8 1.9 23.9 4.9 33.4 9 9.1 3.9 22.2 11.6 27.4 16.1l3.6 3.1-5.8 8.4c-3.2 4.6-9.6 14.1-14.3 21.1-4.8 7.1-9 12.8-9.6 12.8-0.5 0-4.1-2-8.1-4.5-16.8-10.4-33.8-15.9-49.6-16-8.7 0-11.2 0.4-14.4 2.1-5.6 2.9-8.1 6.6-8.1 11.9 0 9.4 7.8 14.1 35 21 30.1 7.7 42.9 12.4 54.7 20.1 17.4 11.6 25.7 27.6 25.8 49.7 0 29.7-16.3 53.7-44 64.5-21.3 8.3-51.8 9.5-78.6 3.1-21.2-5-38.5-13.1-55.1-25.8-6.8-5.2-8.7-8.1-6.3-9.6 1.2-0.7 23-27.6 27.3-33.6 1.5-2.1 3.3-3.9 3.8-3.9 0.5 0 4 2.2 7.6 5 8.9 6.7 24.7 14.3 36.7 17.5 8 2.2 12.1 2.7 22.5 2.8 10.8 0.1 13.3-0.2 17.3-2 7.8-3.5 10.9-11.3 7.3-18.3-3.1-5.9-9.4-8.7-34-15-22.6-5.8-33.5-9.4-45-15-16.9-8.1-27.9-20.1-33.1-36-1.4-4.2-1.8-8.6-1.7-19 0-11.8 0.4-14.5 2.7-21.5 6.7-20.7 21.4-35.5 43.1-43.6 15.2-5.7 39.5-7.5 59.5-4.4zm-646.8 4.6c15.6 3.5 25 7.5 34.8 14.8 26.7 19.8 34.7 60.8 18.4 93.9-5.7 11.6-16.1 22.6-27.1 28.7-4 2.2-7.3 4.3-7.3 4.6 0 0.6 4.8 8 33.7 51.7 8.5 12.9 15.1 23.7 14.7 24-0.5 0.4-15.9 0.5-34.3 0.2l-33.3-0.5-7.2-11c-3.9-6.1-13.4-20.8-21-32.8l-13.9-21.7h-12.3c-9.3 0-12.4 0.3-12.4 1.2 0.3 24.6-0.7 64-1.7 64.6-0.6 0.4-14 0.5-29.7 0.2l-28.6-0.5v-109.3c0-60 0-109.4 0-109.7 0-0.3 26.5-0.5 58.9-0.5 56.1 0 59.4 0.1 68.3 2.1zm460.7 0.4c15.8 3.5 33 12 41.1 20.4 8.3 8.6 14.8 19.8 18.2 31.8 3.1 10.6 3.3 33 0.4 44.3-5.7 22.6-19.3 39-40.4 48.7-16.2 7.5-26.2 9.2-54.7 9.3-13.1 0.1-21.4 0.5-22.2 1.2-1 0.8-1.3 8-1.3 31.4 0 16.6-0.3 30.4-0.7 30.6-0.5 0.2-13.7 0.2-29.5 0l-28.8-0.3v-109.9-110h53.3c53.2 0 53.4 0 64.6 2.5zm813.6 0.5c8.9 2.4 14.7 6.6 19.9 14.5 8.4 12.8 7 27.6-3.5 39-2.4 2.6-6.6 5.9-9.4 7.3-4.4 2.4-6.2 2.7-14.5 2.7-8.4 0-10.1-0.3-14.5-2.7-6.6-3.5-11.8-9-14.9-15.8-3.5-7.7-4.1-12.1-2.6-19.1 3.9-18.5 22.1-30.4 39.5-25.9zm-378.5 58.6c3.6 1.7 7.8 4.4 9.4 6 3 3.1 9.6 12.4 9.6 13.6 0 0.4-3.2 2.9-7.2 5.5-6.7 4.4-7.2 4.6-8.2 2.8-2.1-3.6-9-10.7-12-12.2-4.4-2.3-14.5-2.1-18.8 0.3-3.8 2.2-7.8 9.3-7.8 14 0 7.5 4 14.2 18.3 30.7 4 4.6 12.6 14.7 19.2 22.5 6.6 7.8 12.2 14.2 12.5 14.2 0.4 0 6.8-8 17.1-21.3 1.6-2.1 1.7-2.1 8.8 3.6 7.3 5.9 8.2 7.5 5.6 9.7-1.8 1.5-18.5 22.6-18.5 23.4 0 0.3 5.6 7.1 12.5 15.1 6.9 8 12.5 14.7 12.5 15 0 0.3-5.5 0.5-12.2 0.5h-12.2l-7.1-7.6-7-7.6-4.9 4.4c-10.7 9.9-26.9 15.6-40.1 14.3-19.7-2.1-31.8-9.4-38.4-23.4-2.1-4.5-2.6-7.5-2.9-14.9-0.5-10.8 1.5-17.9 7.5-27 3.3-4.9 17.7-19.2 19.5-19.2 1.5 0 0.8-2.3-1.8-5.7-1.4-1.8-3.9-6.3-5.6-9.9-9.4-20.1-0.2-41.6 20.5-48.4 9.7-3.1 23.1-2.4 31.7 1.6zm192.2-2.5c11.4 2.3 18.6 5.5 28.4 12.5 5.2 3.7 14.4 13 14.4 14.7 0 0.3-3.1 3.3-7 6.7l-7 6.2-7.4-7.5c-6-6.1-8.7-8-15.2-10.7-7.4-3.1-8.6-3.3-19.4-3.3-11.1 0-11.9 0.2-19.3 3.6-14.1 6.5-24.5 19.4-28.2 34.8-0.8 3.6-1.5 11-1.5 16.9 0 19 5.1 32.2 16.6 42.9 7.6 7.1 13.1 9.8 24.2 11.7 16 2.9 31.7-1.9 43-13.3 3.5-3.5 6.6-6.3 6.9-6.3 1.1 0 14.3 11.2 14.3 12.1 0 0.6-3.3 4.2-7.2 8.2-21.7 21.6-55.1 26.4-82.9 12-17.4-9-28.3-22.8-35.1-44.3-2-6.5-2.3-9.5-2.2-22.5 0-14.1 0.2-15.6 3.2-24.5 4.3-13 9.3-21.1 18.7-30.5 10.9-10.9 21.5-16.3 39-19.9 4.2-0.8 18.7-0.5 23.7 0.5zm140.8 44.6c12.3 3.3 22.7 11.2 30.1 22.6 16.7 25.8 6.8 62.3-20.5 75.7-8.7 4.3-15.6 6-24.5 6-39.3-0.1-64.6-41.2-47.1-76.5 6.7-13.6 14.2-20.7 27.2-25.8 11.5-4.6 22.9-5.3 34.8-2zm-866 161.5c0 0.7-1.6 2.3-3.5 3.5l-3.5 2.3h-47.5c-42.1 0-48 0.2-50.8 1.6-5.3 2.7-44.9 29.8-59.5 40.8-13.8 10.3-36.4 29.1-37.1 30.8-0.2 0.6 2.9 0.7 7.5 0.4 8.7-0.7 51.9-4.1 70.9-5.6 28.5-2.2 29.5-2.2 36.4 0.2 3.6 1.3 6.6 2.8 6.8 3.4 0.4 1.1-9.9 2.1-49.7 4.9-10.7 0.8-27.8 2.1-38 2.9-10.2 0.8-23.7 1.8-30 2.2-7.3 0.4-12.4 1.2-14 2.1-5.9 3.5-18.8 22.7-21.5 31.9-3.2 11.1-1.4 22.6 4.4 27.8 2.9 2.7 1.8 3.6-4.4 3.6-5.3 0-5.3 0-8.3-4.9-3.9-6.2-5.5-14.4-4.2-21.2 1.4-7.1 7.8-20.2 13.7-28 2.8-3.7 5.4-7.2 5.8-7.9 0.7-1.1-1.4-1.2-10.4-0.6-10.7 0.7-11.6 0.6-18.2-2-3.8-1.5-6.6-3.1-6.2-3.5 0.4-0.4 10-1.2 21.3-1.9 21.9-1.2 21.6-1.1 28.5-7.5 9.8-9 24.9-21.6 34.8-29 6-4.4 12.9-9.5 15.4-11.4 2.5-1.8 12.4-8.5 22.2-14.8 9.7-6.3 18-11.9 18.6-12.4 1.2-1.2-18.1-0.4-40.8 1.7-8.7 0.8-21.3 1.9-28 2.5-28.2 2.4-52.9 6.2-75.2 11.5-41.7 10-58.1 25.6-42.9 40.8 2.4 2.5 7.4 5.9 10.9 7.7 3.6 1.7 6.5 3.6 6.5 4 0 0.5-2.7 0.9-6 0.9-6.6 0-10.8-1.7-17.5-7-9.9-7.8-12.4-18-6.6-27.1 5.7-9 15.1-14.7 35.3-21.4 26.2-8.5 59.7-14 114.3-18.6 34.8-2.9 55-3.6 116.8-3.7 42.4-0.2 53.7 0.1 53.7 1zm258 13.2c0 0.8-0.6 2.1-1.3 2.8-3.8 4-28.4 32.9-35.3 41.4-8.3 10.3-22.5 27.6-28.1 34.3-3 3.5-5.2 6.6-4.9 6.8 0.3 0.3 5-2.8 10.5-6.8 21.2-15.6 32.2-20.8 37.7-17.8 4.4 2.3 3.3 6.7-3.8 15.4-11.9 14.6-13 16-14.4 18.8-1.3 2.4-1.3 2.8 0.1 3.3 2.3 0.9 30.1-13.4 33.4-17.2 7.7-8.7 21.7-17.4 34.5-21.3 8-2.5 13.3-2.7 18.1-0.7 4.6 2 5.9 4.7 4.4 9.4-1.5 4.6-8.6 13.9-13.5 17.9-2.6 2.1-3.5 3.5-3.1 4.6 1 2.8 5.4 2 14-2.5 6.1-3.2 10.2-6.3 16.2-12.4 4.4-4.5 10.9-10.2 14.4-12.8 5.4-4 7-4.6 11.2-4.6 2.6 0 5 0.4 5.4 0.9 0.3 0.5-2.1 2.7-5.2 4.7-11.5 7.5-30.3 28.2-30.3 33.4 0 5.4 20.5-7.7 47.5-30.4 6.8-5.7 9.8-7.6 12.3-7.7 1.7-0.1 3.7-0.2 4.4-0.3 3.4-0.3 0.7 3-9.7 11.9-6.4 5.4-12.9 11.3-14.5 13.1-4.5 5.2-8.4 12.4-7.3 13.5 0.9 0.9 9.9-3.2 28.2-12.6 5.7-3 20.4-14.4 24.4-19 4.6-5.3 15.1-12.5 18.3-12.5 1.3 0 2.8 0.9 3.4 2.1 1.6 2.9-1 6.5-9.8 13.9-4 3.4-7.2 6.7-7.2 7.5 0 0.7 1.2 2.3 2.8 3.5 1.5 1.2 4.9 4.2 7.5 6.8l4.9 4.6 5.6-3c4-2.2 6.7-4.5 8.9-7.9 6.8-10.2 15.7-17.7 25.6-21.4 7.4-2.7 11.6-2.7 15.8 0.2 4.7 3.2 5.2 7.7 1.1 11.5-4 3.7-18 11.4-27.7 15.2-8.5 3.4-10.5 5-10.5 8.6 0 8.7 13 7 36.9-4.9 11.9-5.9 12.4-6 13.7-4.2 0.8 1.1 1.3 2.4 1.1 3-0.2 0.5-6.8 4.2-14.8 8.2-20.2 10.1-32.7 12.4-41.1 7.5-2.5-1.4-3.4-3-5.2-8.4-0.5-1.5-2-1-12.3 4-11.3 5.5-12 5.7-19.7 5.7-9 0-15.2-2.2-16.6-5.9-1.9-5 3.3-5.9 11.6-2 4 1.9 6.4 2.4 8.7 2 4.7-0.9 7.7-3.3 7.7-6.2 0-2.9-8.2-12.2-11.5-13-1.6-0.4-4.6 1-10.6 4.9-9.1 5.9-32.7 17.7-39.7 19.8-6.1 1.8-9.2 0.2-9.2-4.7 0-1.9-0.3-3.4-0.7-3.2-0.5 0.2-3.2 1.6-6.2 3.1-6.3 3.4-13.4 5.7-17.4 5.7-4 0-8.9-5.1-8.5-8.7 0.3-3.2 0.3-3.2-7.7 0.2-6.6 2.7-10.1 2.6-14.7-0.6-1.4-1.1-2.9-1.9-3.3-1.9-0.3 0-5.3 2.3-10.9 5.1-8.2 4-11.7 5.2-16.8 5.6-5.8 0.5-6.7 0.3-9.3-2-1.9-1.5-3-3.5-3-5.3-0.1-1.6-0.6-2.9-1.1-2.9-0.5 0.1-5.4 2.3-10.9 5-8.1 4.1-10.9 5-15.2 5-4 0-5.7-0.5-7.3-2.1-1.9-1.9-2-2.6-1.1-6.1 1.4-5.2 7.4-14.2 14.6-22.1 3.2-3.5 5.5-6.5 5.3-6.8-0.3-0.2-4.2 2.3-8.7 5.6-19.5 14.6-37.8 27.3-42.2 29.6-5.1 2.5-14.2 3.3-15.4 1.3-0.4-0.6 0.3-2.1 1.6-3.5 1.2-1.3 2-2.4 1.7-2.4-0.3 0-3.9 1.6-8.1 3.5-8.4 3.9-14.8 4.5-18.5 1.9-5.5-3.8-0.4-15 13.7-29.6 2.4-2.6 4.2-5 3.9-5.3-0.3-0.3-7 4.1-14.9 9.7-7.9 5.7-15.4 11-16.5 11.8-1.2 0.8-6.4 4.5-11.7 8.2-9.5 6.8-12.1 7.7-15.8 5.8-2.6-1.5-2.4-4.2 0.7-7.1 2.2-2 15.8-19.4 21.4-27.2 1.4-1.9 1.3-2-0.2-1.4-1.8 0.6-23.4 16.1-33.3 23.8-9 7-21.5 14.9-23.6 14.9-1 0-2.2-0.8-2.8-1.7-1-1.9-0.5-2.9 9.6-19.7 3-4.9 5.2-9.1 4.9-9.3-0.3-0.3-2.2 0.8-4.3 2.4-4.3 3.4-34 20.4-40.5 23.3-11.1 4.9-19.4 4.6-22.2-0.9-2.2-4.1 0.6-9.3 9.2-17.3 4-3.6 7.2-6.9 7.2-7.2 0-0.3-0.9-0.6-2.1-0.6-1.1 0-2.9-0.5-4-1.1-1.6-0.8-3.2-0.2-9.3 3.8-19.2 12.5-34 20.5-45.5 24.4-9.1 3.2-12.1 2.2-12.1-3.8 0-3.2-1.2-4.3-2.5-2.3-1.6 2.7-15.7 8-21.2 8-3.3 0-8.3-4.7-8.3-7.9 0-8 12.5-23 25.6-30.7 16.6-9.7 31.5-12.8 38.9-8 5.1 3.3 1.5 11.6-4.9 11.6-3.7 0-6.4-1.4-4.7-2.4 0.6-0.4 1.1-1.7 1.1-2.8 0-1.9-0.4-2-5.4-1.5-5.5 0.5-13.5 4.1-22.9 10.1-9.2 5.9-20.1 19.5-18.2 22.6 0.8 1.4 4.9 1.2 8.2-0.2 6.4-2.8 23.4-15 28.7-20.7 2.5-2.6 3.7-3.1 7.8-3.1 2.6 0 4.8 0.4 4.8 1 0 0.5-2 2.6-4.5 4.7-7.1 5.9-15.1 19.3-11.6 19.3 1.7 0 26.8-13.4 35.1-18.8 12.3-7.9 15.7-10.8 16.3-14 1.2-5.9 9.3-12.6 12.3-10.1 2.1 1.7 1.7 5.2-1.1 9.3-2.9 4.3-3.1 5.2-0.9 6 3.2 1.2 8.2 0.5 13-1.9 5.6-2.8 7.4-2.6 7.4 0.9 0 2.5-0.9 3.4-17.9 18.1-10.1 8.8-12.1 12.5-6.6 12.5 5.1 0 39.7-20.1 52.2-30.4 3.8-3.1 9.2-7.6 12.1-10.1 5.4-4.5 8.8-5.5 11-3.3 2.2 2.2 1.9 2.7-11.3 24.8-1.9 3-3.2 5.7-3 5.9 0.2 0.2 3.7-2.1 7.7-5.1 13.2-9.9 28.2-19.7 32.7-21.3 5.5-1.9 8.1-1.9 10.9 0.1 4.2 2.9 2.9 6.8-6.1 17.6-2.1 2.7-3.4 4.8-2.9 4.8 0.5 0 4.1-2.4 7.8-5.3 10.9-8.4 22.3-15.5 27.6-17.3 5.8-1.9 10.5-0.6 11.4 3.1 0.8 3.1-1.2 6.5-9.2 16-17.6 21-17 22.5 4.3 11.9 12.6-6.3 13.5-7 19-13.8 3.1-3.9 18.9-22.9 35-42.3 27.2-32.7 29.6-35.3 33.1-35.8 2-0.4 4.2-0.8 4.7-1 2.2-0.8 3.5-0.4 3.5 0.9z"/>
		<path id="Layer" class="s0" d="m2302.5 2017.6c-15.7 1.8-22.4 2.8-30.5 4.5-55.8 11.6-103.2 40.5-141.1 85.9-9.7 11.6-27.2 39.4-32.4 51.5-11.9 27.6-17.7 48.5-21.5 77-1.3 10.3-1.3 42.5 0 53.5 5.8 46.2 21.1 84.9 48.4 122 13.4 18.3 42.4 45.3 62.5 58.4 11.5 7.5 29.3 16.8 39.3 20.6 2.9 1.1 6.2 2.5 7.3 3 6.5 3 24.6 8.2 38.2 10.9 80.4 16.3 163.6-8.1 221.5-65.1 12.5-12.3 18.6-19.3 26.9-30.8 24.5-33.7 40.9-75.2 46-116 2.8-21.6 1.5-54.9-2.8-76-0.9-4.1-1.8-8.6-2-10-0.3-1.4-1.4-5.7-2.5-9.5-9.7-34.3-27.3-67.2-50.1-93.7-10.7-12.4-12.9-14.7-23.9-24.5-39.1-34.7-84.4-54.9-136.8-60.8-11.9-1.3-38.1-1.8-46.5-0.9zm52.9 87.4c75.9 16.9 128.6 81.9 128.6 158.5 0 47.4-19.7 90.6-55.9 122.2-10.4 9.1-17.4 13.9-30.6 20.9-20.4 10.7-37.7 15.8-63.2 18.5-17.8 1.9-42.2-1.1-62.3-7.7-56.9-18.8-98.6-66.7-109.6-125.9-2.6-13.6-2.6-43-0.1-56 8.8-45.1 33.6-82.5 71.2-107.4 16.5-10.9 39.7-20.3 58.3-23.5 4.8-0.9 9.8-1.8 11.2-2 1.4-0.2 11.5-0.3 22.5-0.1 16.2 0.2 21.9 0.7 29.9 2.5z"/>
		<path id="Layer" class="s0" d="m2000.4 2936.1c-12.7 4-21.2 10.5-28.5 21.7-6.4 9.8-8.9 18-9.6 31.3-1 19.2 5 36 16.8 47.6 11.4 11.1 20.8 14.8 37.4 14.7 12.2-0.1 18.5-1.8 28-7.9 23.6-15 31.8-50.8 18.1-79.5-4-8.4-15.8-20.6-23.6-24.3-12.3-5.9-27.1-7.3-38.6-3.6z"/>
		<path id="Layer" class="s0" d="m1749.9 2936.7c0 0.5-0.1 12-0.1 25.8l-0.1 25 23.6 0.3c21.8 0.2 23.9 0.1 29.1-1.9 7.4-2.7 11-5.9 14-12.4 4.6-9.6 2.8-22-4.1-28.7-4.9-4.6-8.4-6.4-15.8-7.7-6.6-1.2-46.5-1.5-46.6-0.4z"/>
		<path id="Layer" class="s0" d="m2220.7 2934.8c-1.6 0.3-1.7 2.3-1.5 28.5l0.3 28.2 17.4 0.3c19.7 0.3 24.6-0.6 32.7-6 7.2-4.9 10.9-12.6 10.8-22.7-0.2-21.2-13.7-29.6-46.4-28.9-6.3 0.1-12.3 0.4-13.3 0.6z"/>
		<path id="Layer" class="s0" d="m3075.3 2892.3c-13.6 5.2-20.8 19.3-16.8 33.1 2.3 7.8 9.6 15.4 17.2 17.9 6.3 2.1 9.6 2.1 15.5 0.3 23.5-7 26.9-38.7 5.2-49.6-5.7-2.8-16-3.7-21.1-1.7zm16.8 7.6c2.2 2.7 2.6 11.4 0.8 15.5-0.9 1.8-0.9 2.9-0.1 3.8 0.5 0.7 1.3 5.2 1.6 10l0.5 8.8h-3.3c-4 0-4.4-0.8-3.9-7.7 0.4-6-0.9-9.3-3.7-9.3-1.8 0-2 0.7-2 8.5v8.5h-3.5-3.5v-19.8c0-10.9 0.3-20.2 0.8-20.6 0.4-0.4 3.8-0.6 7.6-0.4 5.7 0.3 7.2 0.8 8.7 2.7z"/>
		<path id="Layer" class="s0" d="m3082.4 2904.4c-0.8 2.2 0 9.9 1.1 10.3 2.1 0.6 3.5-1.5 3.7-5.6 0.1-2.8-0.4-4.6-1.3-5.2-2-1.2-2.9-1.1-3.5 0.5z"/>
		<path id="Layer" class="s0" d="m2677.4 3023.2c-1.6 1.2-4.6 4-6.8 6.2-10.3 10.9-11.4 27.7-2.4 36.6 4.7 4.7 9.3 6.3 18.3 6.4 6.8 0.1 8.8-0.3 13.5-2.6 6.8-3.3 14-9.3 14-11.6 0-2.1-30.6-37.2-32.4-37.2-0.7 0-2.6 1-4.2 2.2z"/>
		<path id="Layer" class="s0" d="m3024.3 3003c-6.3 1.3-11.4 4.3-16.2 9.5-7 7.7-8.6 12.2-8.6 25 0 10.5 0.2 11.4 3.3 17.7 3.6 7.3 8.9 12.6 16.2 16.1 3.4 1.6 6.4 2.2 12.5 2.2 7.2 0 8.6-0.3 14.3-3.4 7-3.8 12-9.2 15.4-16.7 1.9-4.1 2.3-6.6 2.3-15.4 0-9.3-0.3-11.2-2.6-16.1-6.9-14.7-21.3-22.1-36.6-18.9z"/>
		<path id="Layer" class="s0" d="m2467.8 3227.4c-9.5 3.4-17.5 8.6-25.9 16.9-8.2 8.1-12.3 15.2-9.8 16.8 2 1.4 7.5 0.1 14.2-3.2 10.1-5 11.9-6.6 11.6-10.8-0.3-6.4 0.1-8.8 1.9-10.9 3-3.5 5.7-3.6 9.5-0.2l3.5 3.1 2.5-3.3c4.2-5.6 5-7.7 3.6-9.4-1.6-1.9-3.3-1.8-11.1 1z"/>
		<path id="Layer" class="s0" d="m2646.1 3227.2c-5.3 2.6-17.4 13.7-15 13.8 2.3 0 12.4-5.1 17.7-8.9 2.5-1.9 4.2-3.9 4.2-5.1 0-2.5-1.4-2.5-6.9 0.2z"/>
		<path id="Layer" fill-rule="evenodd" class="s0" d="m1788.3 4183c0.4 164.6 1 415.4 1.3 557.4 0.3 141.9 0.7 258.7 1 259.4 0.3 1 6.4 1.2 27.8 1l27.6-0.3v-519.4-519.4l3.9-4c7.9-8.1-6.5-7.4 158.3-7.7 81-0.1 178.1-0.7 215.8-1.3 285.7-4.9 471.5-4 547.9 2.6l8.5 0.7 1.2 9.1c6.2 47.7 7.4 342 3.9 913.6l-0.8 126.3h28 28.1l-0.8-535.1c-0.8-539.8-0.9-574.9-1.9-576.7-0.4-0.5-89.4-1.2-226.7-1.7-124.4-0.4-227.9-0.9-230.1-1-2.3-0.1-108.4-0.5-235.9-0.9-127.6-0.3-260.2-0.9-294.8-1.2l-62.9-0.6z"/>
	</g>
</svg>