<svg xmlns="http://www.w3.org/2000/svg" version="1.2" viewBox="-1.8 483.4 1070.6 109.6">
	<title>grass1-svg</title>
	<style>
		.s0 { fill: #a43c4c } 
	</style>
	<g id="g22">
		<g id="Clip-Path: g24">
			<g id="g24">
				<g id="g30">
					<path id="path32" fill-rule="evenodd" class="s0" d="m1068.8 593c-9.1-29.1-5.4-77.9-5.4-77.9-5.5 11-9.6 33.4-7.9 56.8-4.8-24.6-13.9-51.9-13.9-51.9 4.3 25.1 4.4 45.9 3 61.5-4.2-10.4-7.3-24-3.6-45.6 0 0-7.4 11.4-12.2 36 1.7-23.4-2.4-45.8-7.9-56.8 0 0 5.2 39.8-3.9 68.9 0 0-9.9-46.4 0.1-93 0 0-14.3 36.9-11.8 97.1 0 0-4.2-18.6-6.4-36.7 0 0-2.5 18-3.5 38.2-1.7-21-2.5-40.1-2.5-40.1-3.4 7.4-5 15.6-5.8 22.5 1.4-66.4-9-67.6-9-67.6 9.9 46.5-3.2 79.6-3.2 79.6-9.2-29.1-8.9-77.3-8.9-77.3-5.6 11-4.6 41.8-3 65.2-4.8-24.6-7.9-44.3-7.9-44.3 3.1 36.1-0.7 40.7-3.4 53.4-2.9-16.2-1.7-48.6 4.3-83.6 0 0-10.3 49.9-15.1 74.5 1.6-23.4-2.4-45.8-7.9-56.8 0 0 5.2 39.8-4 68.9 0 0-11.6-29.9-1.6-76.4 0 0-12.5 20.3-10 80.5 0 0-4.2-18.6-6.4-36.7 0 0-2.5 18-3.5 38.2-1.7-21-2.6-40.1-2.6-40.1-3.3 7.4-5 15.6-5.7 22.5 1.3-66.4-12.3-88.6-12.3-88.6 10 46.6 0 100.6 0 100.6-9.1-29.1-8.9-77.3-8.9-77.3-5.5 11-4.6 41.8-2.9 65.2-4.8-24.6-8.9-67.2-8.9-67.2-0.4 38.3 1.6 62.9-1.3 75.2-3-12.3-4.2-14.3-0.9-52.3 0 0-3.2 19.7-8 44.3 1.7-23.4 2.6-54.2-2.9-65.2 0 0 0.2 48.2-8.9 77.3 0 0-13.4-31.4-3.4-77.9 0 0-10.2-0.5-8.8 65.9-0.8-6.9-2.5-15.1-5.8-22.5 0 0-0.9 19.1-2.6 40.1-0.9-20.2-3.4-38.2-3.4-38.2-2.3 18.1-6.5 36.7-6.5 36.7 2.5-60.2-10-80.5-10-80.5 10 46.5-1.6 76.4-1.6 76.4-9.1-29.1-3.9-68.9-3.9-68.9-5.6 11-9.6 33.4-7.9 56.8-4.8-24.6-12.3-36-12.3-36 3.9 22.6 0.3 36.5-4.1 47.1-1.1-12.8-1.2-30.6 0.9-55.4 0 0-3.1 19.7-8 44.3 1.7-23.4 2.7-54.2-2.9-65.2 0 0 0.2 48.2-8.9 77.3 0 0-10-54 0-100.6 0 0-13.6 22.2-12.2 88.6-0.8-6.9-2.4-15.1-5.8-22.5 0 0-0.8 19.1-2.6 40.1-0.9-20.2-3.4-38.2-3.4-38.2-2.2 18.1-6.5 36.7-6.5 36.7 2.5-60.2-10-80.5-10-80.5 10 46.5-1.6 76.4-1.6 76.4-9.1-29.1-3.9-68.9-3.9-68.9-5.5 11-9.6 33.4-7.9 56.8-4.8-24.6-12.3-36-12.3-36 4 23.3 0.1 37.4-4.5 48.1-1.2-12.9-1.3-31 0.8-56.4 0 0-3.1 19.7-7.9 44.3 1.6-23.4 2.6-54.2-2.9-65.2 0 0 0.2 48.2-9 77.3 0 0-13.2-32.7-3.2-79.3 0 0-10.4 0.9-9 67.3-0.8-6.9-2.4-15.1-5.8-22.5 0 0-0.8 19.1-2.5 40.1-1-20.2-3.5-38.2-3.5-38.2-2.2 18.1-6.4 36.7-6.4 36.7 2.5-60.2-10-80.5-10-80.5 9.9 46.5-1.7 76.4-1.7 76.4-9.1-29.1-3.9-68.9-3.9-68.9-5.5 11-9.6 33.4-7.9 56.8-4.8-24.6-13.9-51.9-13.9-51.9 4.3 25.1 4.4 45.9 3 61.5-4.2-10.4-7.3-24-3.6-45.6 0 0-7.4 11.4-12.2 36 1.7-23.4-2.4-45.8-7.9-56.8 0 0 5.2 39.8-3.9 68.9 0 0-11.6-29.9-1.7-76.4 0 0-12.4 20.3-10 80.5 0 0-4.2-18.6-6.4-36.7 0 0-2.5 18-3.4 38.2-1.8-21-2.6-40.1-2.6-40.1-3.4 7.4-5 15.6-5.8 22.5 1.4-66.4-12.2-88.6-12.2-88.6 10 46.6 0 100.6 0 100.6-9.2-29.1-8.9-77.3-8.9-77.3-5.6 11-4.6 41.8-2.9 65.2-4.9-24.6-8-44.3-8-44.3 3.1 36.1 1.6 34.7-1 47.3-3-16.1-8.9-20.1-2.9-55.1 0 0-5.5 27.5-10.3 52.1 1.7-23.4-2.4-45.8-7.9-56.8 0 0 5.2 39.8-4 68.9 0 0-11.6-29.9-1.6-76.4 0 0-12.5 20.3-10 80.5 0 0-4.2-18.6-6.4-36.7 0 0-2.5 18-3.5 38.2-1.7-21-2.5-40.1-2.5-40.1-3.4 7.4-5 15.6-5.8 22.5 1.4-66.4-9.7-73.7-9.7-73.7 9.9 46.5-2.5 85.7-2.5 85.7-9.2-29.1-9-77.3-9-77.3-5.5 11-4.6 41.8-2.9 65.2-4.8-24.6-10.5-69.9-10.5-69.9 3.3 38 3.9 62.9 1 75.2-3-12.3-4.8-11.6-1.6-49.6 0 0-3.2 19.7-8 44.3 1.7-23.4 2.7-54.2-2.9-65.2 0 0 0.2 48.2-8.9 77.3 0 0-10-54 0-100.6 0 0-13.6 22.2-12.2 88.6-0.8-6.9-2.5-15.1-5.8-22.5 0 0-0.8 19.1-2.6 40.1-0.9-20.2-3.4-38.2-3.4-38.2-2.2 18.1-6.5 36.7-6.5 36.7 2.5-60.2-10-80.5-10-80.5 10 46.5-1.6 76.4-1.6 76.4-9.1-29.1-3.9-68.9-3.9-68.9-5.6 11-9.6 33.4-7.9 56.8-4.8-24.6-12.3-36-12.3-36 3.9 22.6 0.3 36.5-4.1 47.1-1.1-12.8-1.2-30.6 0.9-55.4 0 0-3.1 19.7-7.9 44.3 1.6-23.4 2.6-54.2-3-65.2 0 0 0.3 48.2-8.9 77.3 0 0-9.9-36.6 0-83.1 0 0-13.6 4.7-12.2 71.1-0.8-6.9-2.4-15.1-5.8-22.5 0 0-0.8 19.1-2.6 40.1-0.9-20.2-3.4-38.2-3.4-38.2-2.2 18.1-6.4 36.7-6.4 36.7 2.5-60.2-10-80.5-10-80.5 9.9 46.5-1.7 76.4-1.7 76.4-9.1-29.1-3.9-68.9-3.9-68.9-5.5 11-9.6 33.4-7.9 56.8-4.8-24.6-12.2-36-12.2-36 3.8 22.3 0.4 36.1-4 46.6-1.1-12.8-1.1-30.5 1-54.9 0 0-3.1 19.7-8 44.3 1.7-23.4 2.7-54.2-2.9-65.2 0 0 0.2 48.2-8.9 77.3 0 0-10-54 0-100.6 0 0-13.6 22.2-12.2 88.6-0.8-6.9-2.4-15.1-5.8-22.5 0 0-0.8 19.1-2.6 40.1-0.9-20.2-3.4-38.2-3.4-38.2-2.2 18.1-6.5 36.7-6.5 36.7 2.5-60.2-10-80.5-10-80.5 10 46.5-1.6 76.4-1.6 76.4-9.1-29.1-3.9-68.9-3.9-68.9-5.5 11-9.6 33.4-7.9 56.8-4.8-24.6-13.9-51.9-13.9-51.9 6 35 3.7 42.6 0.8 58.7-2.7-12.6-4.2-15-1.1-51.1 0 0-3.2 19.7-8 44.3 1.7-23.4 2.6-54.2-2.9-65.2 0 0 0.2 48.2-8.9 77.3 0 0-10-32.7 0-79.2 0 0-13.6 0.8-12.2 67.2-0.8-6.9-2.5-15.1-5.8-22.5 0 0-0.9 19.1-2.6 40.1-0.9-20.2-3.4-38.2-3.4-38.2-2.3 18.1-6.5 36.7-6.5 36.7 2.5-60.2-10-80.5-10-80.5 10 46.5-1.6 76.4-1.6 76.4-9.2-29.1-3.9-68.9-3.9-68.9-5.6 11-9.6 33.4-7.9 56.8-4.9-24.6-12.3-36-12.3-36 3.7 21.6 0.6 35.2-3.5 45.6-1.4-15.6-1.3-36.4 3-61.5 0 0-9.1 27.3-14 51.9 1.7-23.4-2.3-45.8-7.9-56.8 0 0 5.3 39.8-3.9 68.9 0 0-11.6-29.9-1.6-76.4 0 0-12.5 20.3-10 80.5 0 0-4.2-18.6-6.4-36.7 0 0-2.6 18-3.5 38.2-1.7-21-2.6-40.1-2.6-40.1-3.3 7.4-5 15.6-5.7 22.5 1.3-66.4-12.3-88.6-12.3-88.6 10 46.6-1.3 109.6-1.3 109.6"/>
				</g>
			</g>
		</g>
	</g>
</svg>