<svg version="1.2" xmlns="http://www.w3.org/2000/svg" viewBox="0 0 6207 1584" width="5000" height="1276">
	<title>logo-svg</title>
	<style>
		.s0 { fill: #2b6c42 } 
		.s1 { fill: #373435 } 
		.s2 { fill: #a63f4e } 
		.s3 { fill: #e83338 } 
	</style>
	<g id="Layer">
		<path id="Layer" class="s0" d="m389 2.1c-62.6 4.4-124.9 22.9-177.5 52.7-13.2 7.4-41.3 26.4-52.8 35.7-60.8 48.9-107.1 114.9-132.7 189-24.8 72.1-31.2 152.1-18.4 230.5 19 116.5 83.7 218.5 177.9 280.6 55 36.2 111.1 56.7 178.5 65.1 20.1 2.5 78.4 2.5 101 0 122.7-13.6 210.1-64.6 287.4-167.7 6.4-8.5 11.3-15.7 10.8-16.1-0.4-0.3-36.9-27.3-81.2-59.9-44.3-32.6-81.2-59.9-82.1-60.6-1.4-1.2-2.6-0.1-10.5 9.4-12.4 15-31.1 34-42.9 43.7-14 11.5-24.9 18.6-40 26.1-27.1 13.4-54.2 19.4-87.7 19.4-66.3-0.1-121.4-32.3-157.5-92.2-28.7-47.5-39.9-114.5-29.2-175.8 15.1-87.3 72.3-152.6 147.9-168.8 48.8-10.5 101.1-1 143.1 25.9 19.6 12.6 42.4 33.5 60.2 55.1 4.9 6 9.1 10.8 9.4 10.8 0.6 0 159.9-127.4 163.1-130.5l2.4-2.2-10.5-13.9c-61.8-82.1-141.2-131.8-239.7-149.8-36.1-6.6-82.1-9.1-119-6.5z"/>
		<path id="Layer" class="s0" d="m2055 1.6c-2.5 0.2-10.1 0.8-17 1.4-80 6.8-157.6 36.5-221.3 84.7-50.1 37.9-92.8 89.6-121.5 146.9-24.6 49.2-39.4 102.5-44.2 159.9-0.5 6.6-1 23-1 36.5 0 34.9 2.7 62.4 9.1 92.5 29.5 139.6 123.7 252.3 253.9 303.8 52.6 20.8 105.5 30.7 164 30.7 78 0 151.3-18.9 216.5-55.8 14-7.9 41.6-26.7 55.5-37.8 26.2-20.9 59.3-56.2 79.6-84.9 62.4-88 89.2-200.4 74.3-311.8-9.1-68.4-33.7-132.3-72.7-188.4-19.1-27.4-53.6-64.4-79.2-84.9-63.3-50.6-136.7-80.7-220-90.4-16.6-2-63.7-3.5-76-2.4zm46 206.4c42.8 5.3 79.5 22.6 111.8 52.5 27.8 25.8 51.4 67 61.7 107.5 5.7 22.4 6.9 33.5 6.9 62.5 0.1 29.5-0.9 39-6.4 61.3-8.2 33.4-22.9 63.7-42.8 88.3-8.7 10.8-28.2 29.3-39.3 37.1-16.9 12.1-41.9 23.7-61.9 28.8-61.1 15.6-123.4 3-171.8-34.7-44.7-34.8-74.9-91.7-82.2-154.3-1.7-14-1.4-47.3 0.5-61.5 12.5-94.7 72.2-165.2 155.8-183.9 6.4-1.5 14.9-3 18.9-3.5 10.7-1.2 39-1.3 48.8-0.1z"/>
		<path id="Layer" class="s0" d="m3648.3 4c-130.9 7.4-227.5 68.4-266 167.9-19.4 50.2-22.4 117.1-7.7 168.5 17 59 57 102.2 124.8 134.6 39.3 18.9 82.6 32.8 162.6 52.6 68.4 16.8 98.9 27.7 117.6 41.7 13.3 10.1 19 20.1 20.1 35.3 3.1 43.9-37.7 66.3-111.7 61.5-81.1-5.3-155.6-34.5-224.5-87.9-12.1-9.4-13.1-10-14.6-8.4-2.1 2.2-119.3 147.3-120.2 148.9-0.9 1.5 17.5 17.5 35.8 31.3 78.2 58.8 174.4 94.1 282 103.5 128 11.2 234.5-17.5 301.5-81.2 20-19 35.4-40.2 48-65.8 11.7-23.8 19-47.4 23.5-76.5 2.3-14.3 3.1-55.9 1.5-71.6-4.1-40.9-16.2-73.6-38-103.4-8.2-11.2-31-33.7-43.5-42.9-45.1-33.1-108.7-58.8-197-79.6-82.7-19.4-116.2-30.6-135.5-45.4-13.4-10.2-18.1-19.4-18.8-37.1-0.3-9.9-0.1-12.4 1.8-17.9 6.8-20.3 24.8-32.8 54.1-37.7 13.7-2.3 48.4-1.5 67.4 1.5 54.3 8.6 109.8 31.4 162.4 66.5l16.8 11.2 54.3-79.4c29.8-43.7 54.3-80.1 54.4-80.9 0.1-2-20-17.8-37.9-29.7-69.4-46.2-148.1-71.9-241-78.5-21.1-1.5-55.1-2-72.2-1.1z"/>
		<path id="Layer" class="s0" d="m859 430v412h110 110v-125-125h48.8l48.7 0.1 80 124.9 80 124.9 127.2 0.1h127.3l-9.8-14.8c-5.3-8.1-48-72.7-94.9-143.6l-85.1-128.9 15.1-7.6c28.2-14.2 49.7-29.3 70.6-49.6 44.5-43.3 67.9-92.7 76.3-161 1.9-15.1 1.5-62.9-0.5-79.5-6.4-50.9-22.2-92.3-48.7-127.6-15.3-20.2-39.9-43.2-62.5-58.2-13.2-8.8-40.8-22.7-56.8-28.5-33.8-12.5-73-20.4-116.2-23.6-9.1-0.7-85.2-1.1-216.7-1.1h-202.8zm398.5-212.6c38.4 7.4 62.7 23.2 75.9 49.3 12.2 24.2 13.6 60.2 3.4 86.3-4.3 11.1-9.9 19.3-19.7 29-16.9 16.7-39.1 26.5-68.1 30-5.1 0.6-40.2 1-89.2 1h-80.8v-99.1-99l84.8 0.4c75.5 0.3 85.7 0.5 93.7 2.1z"/>
		<path id="Layer" class="s0" d="m2622 430v412h110.5 110.5v-117.9-117.9l73.8-0.5c79-0.4 83.7-0.7 118.2-6.3 53-8.5 101-26.6 140-52.5 67.6-45 106.4-110.6 117.2-197.9 2-16.1 1.7-69.1-0.5-85.3-10.6-78.9-44.8-139.2-103.5-182.5-39.5-29.2-91.6-49.4-149.5-58.2-33.2-5-34.5-5-231.9-5h-184.8zm345.1-220c34 3.5 58.5 13.3 77.2 31 21.1 19.8 30.8 47.5 29.4 83.5-2.1 52.3-34.5 88.2-89.7 99.5-15.5 3.2-34 4-89.2 4h-51.8v-109.5-109.5h56.9c32.4 0 61.3 0.5 67.2 1z"/>
		<path id="Layer" class="s1" d="m6069.5 27.1c-40.2 5.5-75.3 30.9-93 67.3-14.2 29.1-16.2 60.7-6 91.4 13.8 41.2 47.8 71.4 90.5 80.3 13.3 2.7 33.4 3 46.3 0.5 42.4-8.1 77.7-38.2 92.1-78.4 8.8-24.5 9-54.8 0.7-79.4-13.9-41.1-48.9-71.9-91.1-80.3-9.6-1.9-30.5-2.7-39.5-1.4zm42 21.8c4.4 1.2 12.5 4.3 18 7 29.6 14.5 50.5 42.1 56.1 74.3 2.3 13 1.4 31-2.1 43.7-9.7 35.3-37.6 62.9-73.2 72.2-10.2 2.7-29.6 3.6-40 1.9-46.6-7.4-81.4-44.1-86.2-90.7-1.1-10.7-0.1-24.6 2.4-34.5 9.1-35.7 37.2-64.2 72.6-73.7 11-3 11.1-3 28.4-2.6 12.5 0.2 17.7 0.7 24 2.4z"/>
		<path id="Layer" class="s1" d="m6053 147.4v75.6h12 12v-32.5-32.5h6c7.8 0 12.4 1.9 14.7 6.2 1.5 2.9 1.9 6.8 2.3 29.3 0.4 14.3 1 26.8 1.4 27.7 0.7 1.6 2.4 1.8 12.6 1.8h11.9l-1.1-3.3c-0.5-1.7-1.3-15.4-1.7-30.2-0.6-22.4-1-27.7-2.5-31-2-4.7-5.9-9.1-10-11.2-2.7-1.4-2.8-1.6-1-2.5 3.8-2.1 8.7-7.4 10.7-11.8 1.6-3.7 2.1-7.2 2.5-18.9 0.7-23.4-2.9-32.4-15.6-38.4l-6.7-3.2-23.7-0.3-23.8-0.4zm43.1-50.6c2 2.2 2.9 4.6 3.5 8.8 1 8.7-0.1 21.7-2.2 25.3-2.3 3.8-7.8 6.1-14.9 6.1h-5.5v-22.1-22.2l8.2 0.5c7.6 0.5 8.3 0.7 10.9 3.6z"/>
		<path id="Layer" class="s2" d="m4601.9 236.5c-41.3 5.8-75.1 25.9-95.6 56.7-20 30-25.8 65.5-16.8 102.5 5.6 23.2 18.2 47.4 36.9 70.8 4 4.9 7.5 9.5 7.9 10.1 0.4 0.7-3.9 4.5-11.1 9.7-46 33.3-76.3 69.4-89.7 106.7-7.3 20.5-10.7 47.3-8.7 69.5 3.3 36.8 17.4 67.1 42.3 91 23.7 22.7 55.3 37 92.9 41.9 44.4 5.8 88.4-0.2 119.2-16.1 18.8-9.7 42.8-27.2 61.2-44.6l8.8-8.4 15.2 17.2c8.3 9.4 19.8 22.6 25.6 29.3l10.5 12.1 46.3 0.1c28.4 0 46.1-0.4 45.7-0.9-0.3-0.5-21.9-25.9-48.1-56.3-26.2-30.4-47.8-55.8-48.1-56.5-0.2-0.7 4-6.7 9.4-13.5 5.5-6.8 23.3-29.1 39.6-49.6l29.7-37.2-27.2-21.7c-22.2-17.7-27.3-21.3-28.2-20.1-0.6 0.8-16.4 20.9-35 44.7-27.1 34.5-34.2 42.9-35.1 41.9-5.7-6.1-150.4-176.1-156.2-183.6-23-29.3-31.4-48.2-31.6-71.2-0.2-18.5 5.1-31.6 17.8-44.6 13-13.1 30.8-19.1 54-18.1 29.5 1.2 47.9 13.3 69.3 45.7 4.1 6.3 7.9 11.9 8.2 12.3 0.4 0.5 12.7-6.9 27.4-16.3l26.7-17.2-4.7-8.7c-17.4-32.1-35.4-50.6-62.2-64-10.6-5.3-26.1-10.5-37.7-12.7-12.3-2.2-45.7-2.8-58.6-0.9zm41.1 366.3l61.2 70.3-5.6 6.3c-11 12.6-32.6 29.9-46.7 37.5-22.1 11.9-52.2 15.8-81.5 10.6-27.4-5-47.3-18.7-59.7-41.5-13.3-24.3-12.8-62.4 1.3-91.7 9.1-18.7 27.2-37.9 56.5-59.7l8.9-6.7 2.2 2.3c1.2 1.3 29.7 33.9 63.4 72.6z"/>
		<path id="Layer" class="s2" d="m5335 237.1c-48.7 5.3-91.7 22.2-130.3 51.2-13.6 10.3-33.8 29.8-44.1 42.7-32.2 40.5-52.6 88.1-60.7 142-2.1 13.5-2.4 19.2-2.4 45 0 18.3 0.5 33.5 1.3 40 15.8 126.8 101.9 218.9 221.2 236.4 27.3 4 60.7 4 86.2 0 52.9-8.2 108.3-36.9 145-75.2 10.4-10.9 21.9-25.3 22.2-27.6 0-0.7-11.8-11.2-26.4-23.4-20.3-17-26.7-21.9-27.6-20.9-0.6 0.6-6.7 7.5-13.5 15.1-18.2 20.5-34.3 33.3-54.8 43.6-19.2 9.6-34.7 14.6-54.1 17.4-60.1 8.5-114.2-6.8-154.4-43.6-31.3-28.6-52.9-70.6-61.6-119.9-3.1-17.5-3.9-55.7-1.6-74.9 8.3-68.1 40.7-123 90.8-154.2 32-19.9 71.1-29 111.2-25.9 26.3 2 43.9 6.9 67.6 18.8 25.9 12.9 44.4 29.1 65.8 57.5l5.1 6.7 25.3-21.5c13.9-11.9 26.1-22.4 27.2-23.4 1.8-1.7 1.7-1.9-2.3-7.4-39.1-52.9-94.8-86.4-161.6-97.2-11.8-1.9-60.2-2.8-73.5-1.3z"/>
		<path id="Layer" class="s2" d="m5869.5 399.6c-15.7 1.8-22.8 3.1-34 5.9-15.8 4-25.1 7.6-41.5 16.1-56.3 29.1-95.8 87.9-102.9 153.6-3.1 28.5 0.1 59.6 8.9 86.1 21.1 63.2 71.1 111.2 133.2 127.7 16.5 4.3 28.2 6 46.8 6.7 47.8 1.7 91.3-11.8 127.9-39.6 34.1-26 60.3-65.7 71-107.6 4.8-18.6 5.6-26 5.6-51 0-18.6-0.4-26.1-1.8-33.5-3.9-21-8.3-35-16.6-52.5-10.6-22.2-22.1-38.7-39-55.6-32-32-72.7-51.2-118-55.8-9.5-1-32.6-1.3-39.6-0.5zm32 62.4c18.9 2.2 35.5 8.3 52 19.2 10.2 6.7 27.4 23.9 34.3 34.3 37.9 57 31.2 136.7-15.3 183-21.7 21.7-46.9 33-78 35-25.9 1.8-52-5.5-74.2-20.7-22.2-15.1-41.3-41.1-50.2-68.5-5.7-17.3-6.6-24-6.6-46.8 0-18.3 0.3-22.3 2.3-31.4 8.8-39.2 29.3-69.3 59.8-87.8 22.6-13.7 48.7-19.3 75.9-16.3z"/>
		<path id="Layer" class="s3" d="m2347.5 1007.6c-145 2.2-327.2 15.1-468.5 33-156 19.8-273.3 50.1-333.8 86.3-26.1 15.6-45.5 34.5-54.1 52.4-10.6 22.1-7.3 50.2 8.3 72.2 9.9 13.8 31.4 30.5 51.9 40.5l10.2 4.8 27.5 0.7 27.5 0.6-9-3.9c-46.4-19.9-78-46.1-85-70.6-2.2-7.5-1.6-20.7 1.2-28.7 11.2-32.3 58-62.8 130.8-85.4 94.1-29.2 227.8-49 445-65.9 65.2-5.1 146.4-10.1 153.7-9.4 3.2 0.3 1.1 1.8-30 21.8-155.2 99.6-247.5 169.1-326.7 246.2l-15.1 14.7-31.5 2.5c-35 2.9-90.7 6.9-118.9 8.6-10.2 0.6-18.9 1.2-19.4 1.4-0.5 0.1 4.5 2.2 11 4.6 6.5 2.4 18.7 7.2 27 10.7l15.1 6.4 30.9-2.1c17-1.1 36.9-2.5 44.2-3.1 7.4-0.6 13.6-0.8 13.9-0.5 0.3 0.3-2.8 4.5-7 9.3-39.2 46.2-63.1 88.7-71.2 126.8-2.7 12.3-3.1 30-1 42.9 3.5 22.3 7.8 31.7 24.5 52.9l4.5 5.7 9.5-0.1c5.2-0.1 14.7-0.6 21-1.3l11.4-1.1-4.1-3.3c-5.3-4.2-15-16.2-20.2-25-19.3-32.6-11.8-82.3 20.4-135.3 11.6-19.2 31.2-44.6 51.6-67l7.8-8.5 24.8-1.7c13.6-1 71.8-5.3 129.3-9.7 229.6-17.5 289.7-22 317.4-24 16-1.1 29.1-2.2 29.3-2.4 0.2-0.1-13.1-5.1-29.4-11.1l-29.7-10.9-31.6 2.3c-40.5 2.9-144.6 10.9-273 21.1-55.8 4.4-103.1 8-105 7.9h-3.5l7.5-7c4.1-3.9 16.7-15 28-24.7 11.2-9.7 24.3-21 29-25.1 25.6-22.1 86.7-69.5 123.5-95.8 36.7-26.1 97.6-67.5 151.3-102.9l38.3-25.2 24.2-0.6c40.9-1.1 107.3-1.1 224.3-0.2l112.1 0.9 15.9-11.3c8.8-6.2 16.3-11.6 16.7-12 0.4-0.4-29.3-0.6-66-0.6-36.7 0.1-112.2-0.2-167.8-0.5-55.5-0.3-109.1-0.4-119-0.3z"/>
		<path id="Layer" class="s3" d="m3641 1061.5c-10.7 1.7-20.2 3.4-21.1 3.6-3.6 0.9-126.5 147.9-231.1 276.4l-32.5 40-50.4 25.3c-27.7 13.8-52.5 25.7-55.1 26.3-5.3 1.3-9.3 0.6-10.1-1.6-0.9-2.2 2.1-12.4 5-17.5 4.3-7.4 19.1-26.2 36.9-47 23.3-27.2 27.3-32.3 33.9-42.4 5.7-8.8 5.9-9.2 6.3-17 0.3-7.2 0.1-8.5-2-11.6-3.7-5.6-10.3-8.3-20.2-8.3-18.9 0-37.3 7.7-67.1 28.1-6 4.2-27.2 19.5-47 34.2-36.2 26.9-53.1 38.7-54 37.8-0.5-0.5 10.2-13.8 25.5-31.7 29.8-34.8 36.8-51.3 26.8-62.7-5.2-5.9-13.4-7.8-26.3-6.3-16.9 2.1-31.3 9-65.5 31.6-26.9 17.7-78 54.8-105.7 76.7-4 3.1-7.3 5.5-7.3 5.3 0-0.3 6.2-11.2 13.8-24.3 7.6-13.2 18.5-32.2 24.1-42.2 5.7-10.1 13-22.7 16.3-28 6.7-10.6 11.4-20.1 12.4-24.7 1.4-7.1-8.5-12-19.4-9.6-8.9 1.9-14.4 5.5-32.8 21.8-48.6 42.9-66.5 56.3-106 78.8-9.3 5.3-17.8 10.5-18.9 11.4-5.2 4.6-49.7 30-72.5 41.5-24.9 12.6-38.5 16.9-45.6 14.6-5.6-1.9-5.9-7.1-0.7-14.7 9.7-14.4 24.5-28.3 65.8-62 12.1-9.9 25.3-21 29.3-24.7 6.8-6.4 7.2-7 7.2-11.2 0-2.4-0.9-6.8-2.1-9.9-1.9-5.1-2.3-5.5-5.3-5.5-1.9 0-5.3 1.4-8.6 3.4-13.1 8.3-15.9 9.8-23.5 12.2-6.4 2.1-10.6 2.7-21.1 3.1-15.6 0.6-19-0.4-22.9-7.2-3-5-3.2-8.1-0.6-9 3.4-1.1 12.2-11.4 15.1-17.9 1.6-3.5 3.4-9.2 4.1-12.8 1-5.6 1-6.9-0.5-10-4.9-10.4-19.6-6.1-35 10.2-8.7 9.3-13.9 19.8-13.5 27l0.4 5.3-11.5 9.6c-17.3 14.5-33.7 25.7-68 46.6-8 4.8-14.7 9.1-15 9.5-0.4 0.5-44.3 23.1-87.3 44.9-6.5 3.4-9.9 4.5-13.5 4.5l-4.7 0.1-0.3-3.8c-0.5-5.4 2.1-12.2 8.5-22.9 13.2-22.1 25.1-35.3 54.4-60.3l5.8-5-7.2-0.6c-4-0.4-11.8-0.7-17.5-0.8l-10.3-0.1-10.8 9.9c-37.6 34.1-75.8 61.8-105.6 76.6-20.4 10.2-30.5 11.7-36.7 5.5-2.3-2.3-2.8-3.7-2.8-7.6 0-11 13.8-31.4 36.9-54.4 13-12.9 16.7-15.9 33.6-27.2 28.1-18.7 44.7-27.3 70.3-36.2 16.2-5.6 28.9-6.5 36.2-2.6 6.3 3.4 5.2 12.8-2.6 21.9l-3.6 4.1h12.4c17-0.1 19.2-0.7 25.6-7.5 9.3-10 12-18.5 8.4-26.7-3.8-8.6-15.4-12.7-38.2-13.5-17.1-0.6-30.1 1.1-48 6.2-60.9 17.5-124.6 64.3-151.3 111-9.8 17.1-12.8 34.6-7.9 44.7 3 6 9.9 12.2 15.9 14.2 6 2.1 20.1 2.1 29.9 0 18.4-3.8 44.5-15.4 63.9-28.4 10.3-6.9 10.7-7.1 10-4.4-4.7 18.9-3.7 27.9 3.8 32.4 12.3 7.5 34.5 0.7 93.8-28.6 24.5-12.1 55.2-28.6 58.4-31.4 1.1-0.9 10.1-6.5 20-12.5 16.6-10 39.4-25 57.3-37.7l7.2-5.2 3 3.6c6.9 8.3 22.1 10.6 36.8 5.6 4-1.4 6.9-2.2 6.5-1.8-0.4 0.4-5.3 3.7-10.8 7.5-32.7 22.2-56.7 45.8-65.7 64.3-4.3 9-5.1 19-1.8 25.6 2.8 6 8.5 10.9 15.6 13.6 8.1 3.2 25.3 3.2 36.7 0.2 21.1-5.7 57.2-23.4 99.2-48.7 9.4-5.6 23.3-13.7 31-18 28.4-15.9 53.5-31.8 70-44.4 4.3-3.3 8.1-5.8 8.3-5.6 0.5 0.4-7.7 14.1-28.3 47.5-18.1 29.1-28.2 46.4-34 58.1-5 9.9-4.8 11.8 2 15.6 6.5 3.7 12.4 3.2 20.9-1.9 21-12.3 45.7-29.9 105.6-74.9 45.2-33.9 64.2-47.7 82.2-59.5 15.6-10.3 19.4-12.2 21-10.6 1.7 1.7 0 4.7-8.1 13.6-4 4.4-19.1 23.7-33.6 43-25 33.4-32.6 42.9-49.2 61.5-8 8.9-8.7 11.1-5.3 16.5 4.5 7.3 18.5 10.9 26.6 6.8 7.5-3.8 35.6-23.3 103.4-71.7 105.8-75.5 98.5-70.4 100.4-68.5 2.1 2.1-3.4 9.5-23.1 30.7-29.3 31.7-43.6 51.3-51.3 70.7-5.3 13.3-5.8 26-1.1 31 5 5.3 19.3 9.6 32.1 9.6 11.4 0 27.6-6 59.8-22.1 11.6-5.9 21.2-10.6 21.2-10.4 0 0.2-5.4 7-12 15.2l-11.9 14.8 22.6 0.3 22.6 0.2 10.3-5.5c28.9-15.4 56.8-34.6 123.4-84.9 39.5-29.8 70.8-51.6 74.1-51.6 2.9 0 2.4 4-1 8.7-1.6 2.2-8.2 9.7-14.7 16.7-32.6 34.9-46 52.6-55.4 73.1-5.8 12.5-7.6 23.7-4.9 31.3 2.1 6 11.2 10.4 25.6 12.3 10.6 1.4 16.2 0.7 28.3-3.4 10-3.3 47.7-21.7 69-33.5 6.9-3.8 12.6-6.8 12.8-6.7 0.2 0.2-0.1 2-0.7 4.2-0.6 2.1-1.1 7.2-1.1 11.3 0 12.5 5.6 21.1 17.9 27.2 4.2 2.1 5.9 2.3 18.6 2.2 11.9 0 15.5-0.4 24.4-2.7 20.4-5.4 48.1-18 76.9-35l12.4-7.3 6.5 6.3c9.2 8.9 19.1 13.7 29.3 14.1 4.9 0.3 10-0.2 14-1.2 8.1-2.1 27.7-10.3 40.9-17.2 9.2-4.8 10.2-5.1 9.7-3.1-4.3 15.1-4.5 22-0.8 29.4 2.8 5.4 10.2 11.8 15.9 13.7 6 2.1 20.1 2.1 29.9 0 19-3.9 46.7-16.5 65.9-30 5.9-4.1 10.9-7.3 11.1-7.1 0.2 0.1-0.6 3.2-1.8 6.7-2.7 8.5-2.9 20.3-0.5 24.7 5 9.3 16.5 10.2 38.5 3.2 16-5.1 58.2-24.8 90.7-42.4 7.7-4.1 14.3-7.5 14.8-7.5 1.9 0 21.3-11.7 42.2-25.5 25.1-16.6 28.3-18.5 31.5-18.5 1.2 0 5.2 2.6 8.8 5.8 3.7 3.2 11.3 9.7 16.8 14.5 9.6 8.2 14.9 13.8 18.7 19.8 2.3 3.5 3.9 12.5 3.1 17.8-1.7 11.1-16.8 19-36.9 19.3-10.6 0.1-17-1.7-24.7-6.9-10.7-7.4-15-8.7-28.1-8.8h-11.9l-2.9 3.3c-1.6 1.8-2.9 4.1-2.9 5.3 0 5.8 8.6 15.7 17.9 20.3 13.9 7.1 37.4 10.7 55.7 8.7 19.1-2.2 27.5-5 54.4-18.3 13.5-6.6 31.6-15.8 40.3-20.4 8.7-4.6 16.1-8.4 16.6-8.4 0.5 0 1.1 4.2 1.3 9.3 1.4 26.2 16.9 38.5 51.3 40.4 27.6 1.6 69.5-10.7 115.5-33.7 11.1-5.5 59-32 59-32.6 0-0.2-2-4.5-4.5-9.5l-4.6-9-5.2 2.9c-56.2 31.6-108 53.6-135.8 57.6-14.8 2.2-28.3 2.1-33.4-0.3-11.1-5-14.1-16.6-8.4-32.7l2.2-6.2 15.1-5.8c42.5-16.1 82.9-35.8 108.6-53 19.5-13 25-20 25-31.6-0.1-16.2-13.7-26.6-36-27.6-26.3-1.1-54.6 9.8-84.5 32.7-19.3 14.8-40 39.3-52.4 62.1l-4 7.4-24.7 13.3c-13.5 7.3-25 13.3-25.3 13.3-0.4 0-1.2-1.9-1.8-4.2-1.9-7-3.6-8.6-40.6-40.6-9.7-8.4-11.7-11.2-11.7-17 0-4.5 1.5-6.1 16-17.2 13.3-10.3 35-29.1 40.5-35.2 2.6-2.9 5.5-6.9 6.6-8.9 4.1-8.2 3.3-17.6-1.9-20.3-7.2-3.7-13.7-2.8-26.7 3.5-14.3 6.9-28.2 18.2-51 41.4-27.1 27.5-48.9 44.5-84.2 65.8-18.6 11.2-106.7 55.7-110.3 55.7-1.6 0-3.6-0.8-4.5-1.7-2.4-2.4-1.4-7 3.8-17.8 9.2-18.9 26.9-41.9 41.6-54 4.6-3.9 17.2-14.6 28-23.9 10.8-9.2 28-24.1 38.4-33l18.7-16.1-18.6-0.3c-14.8-0.2-19.1 0.1-20.8 1.2-1.2 0.7-10.6 8.7-21.1 17.6-42.8 36.6-104.9 84.7-136 105.5-16.8 11.2-36.2 21.6-43.8 23.6-15.3 3.8-16-10.9-1.6-32.3 9.4-13.9 17.1-23 34.4-40.7 28-28.6 59.6-54.8 83.7-69.4 8.9-5.4 10.3-6.6 8.5-7.1-1.2-0.3-11.3-0.6-22.3-0.6h-20.2l-12.8 9.1c-29.8 21.2-61.8 50.5-83.3 76.1-4 4.9-7.6 8.6-8.1 8.3-0.4-0.2-9 4.1-19.1 9.7-23.5 12.9-43.7 22.3-51.5 23.8-10.5 2.1-15.6-1.7-16.9-12.6l-0.6-4.9 5.3-3.5c8-5.2 32.3-30 41.6-42.5 17.5-23.3 22.8-40 16.6-52.1-5.8-11.2-27.7-17.2-53.1-14.5-55 5.9-121.2 42.1-162.5 88.9-8.5 9.6-6.4 8.4-68.8 39.9-39.9 20.2-51.7 25.1-56.6 23.9-2.6-0.7-2.6-0.9-2.1-6 1.2-11.4 8.2-21.8 39.7-58.6 37.8-44.1 44.7-55 42.5-66.8-1.7-9.5-10-14.6-23.5-14.4-18.8 0.2-36 7.8-71.3 31.2-30.5 20.2-87.1 61.4-105.2 76.5-6 4.9-8.2 6.4-7 4.5 1.7-2.8 58.4-73.4 88.1-109.7 67.6-82.6 95.4-115.9 153.9-184.3 21-24.5 38.4-45.1 38.9-45.8 1-1.7-1.9-1.5-24.4 2.3zm175.2 239.1c3.6 1.8 4.8 4.3 4.8 9.6 0 5.9-3.6 13.2-11.9 24.1-7.9 10.4-18.8 22.7-20.2 22.7-0.5 0-0.9-0.8-0.9-1.8 0-7.1-11.2-19.9-19.4-22.2-21.9-6.1-38.4 25.3-28.1 53.7 1.4 3.9 2.5 7.3 2.5 7.6 0 0.3-5.1 3.9-11.2 8-45.1 29.8-86.4 43.4-94.5 31.1-7.8-12 24.1-54.8 65.9-88.3 21.6-17.3 44.2-29.7 72.7-39.8 19.8-7 32.8-8.5 40.3-4.7zm656.5 0c3.1 4.2-1.8 13.8-10.9 21.5-9.5 8-25.2 17.8-40 25.1-14 7-43.5 19.1-45 18.6-1.6-0.6 15.2-20.6 25.3-30.3 18.4-17.7 40.2-32 54.9-36 6.9-1.8 13.9-1.4 15.7 1.1z"/>
	</g>
</svg>